<svg width="1280" height="640" xmlns="http://www.w3.org/2000/svg">
  <defs>
    <linearGradient id="bg" x1="0%" y1="0%" x2="100%" y2="100%">
      <stop offset="0%" style="stop-color:#0f172a"/>
      <stop offset="100%" style="stop-color:#1e293b"/>
    </linearGradient>
    <linearGradient id="accent" x1="0%" y1="0%" x2="100%" y2="0%">
      <stop offset="0%" style="stop-color:#10b981"/>
      <stop offset="100%" style="stop-color:#34d399"/>
    </linearGradient>
  </defs>
  
  <!-- Background -->
  <rect width="1280" height="640" fill="url(#bg)"/>
  
  <!-- Decorative grid pattern -->
  <g opacity="0.1">
    <line x1="0" y1="160" x2="1280" y2="160" stroke="#10b981" stroke-width="1"/>
    <line x1="0" y1="320" x2="1280" y2="320" stroke="#10b981" stroke-width="1"/>
    <line x1="0" y1="480" x2="1280" y2="480" stroke="#10b981" stroke-width="1"/>
    <line x1="320" y1="0" x2="320" y2="640" stroke="#10b981" stroke-width="1"/>
    <line x1="640" y1="0" x2="640" y2="640" stroke="#10b981" stroke-width="1"/>
    <line x1="960" y1="0" x2="960" y2="640" stroke="#10b981" stroke-width="1"/>
  </g>
  
  <!-- House icon -->
  <g transform="translate(540, 120)">
    <path d="M100 0 L200 80 L200 200 L0 200 L0 80 Z" fill="none" stroke="#10b981" stroke-width="4"/>
    <rect x="70" y="120" width="60" height="80" fill="none" stroke="#10b981" stroke-width="3"/>
    <circle cx="100" cy="40" r="15" fill="none" stroke="#34d399" stroke-width="2"/>
  </g>
  
  <!-- Main title -->
  <text x="640" y="380" font-family="system-ui, -apple-system, sans-serif" font-size="72" font-weight="700" fill="white" text-anchor="middle">HomeHarbor</text>
  
  <!-- Subtitle -->
  <text x="640" y="430" font-family="system-ui, -apple-system, sans-serif" font-size="24" fill="#94a3b8" text-anchor="middle">AI-Powered Real Estate Search Platform</text>
  
  <!-- Tech badges -->
  <g transform="translate(640, 480)" text-anchor="middle">
    <rect x="-350" y="0" width="90" height="32" rx="16" fill="#10b981" opacity="0.2"/>
    <text x="-305" y="22" font-family="system-ui, sans-serif" font-size="14" font-weight="600" fill="#10b981">AWS Lambda</text>
    
    <rect x="-240" y="0" width="70" height="32" rx="16" fill="#10b981" opacity="0.2"/>
    <text x="-205" y="22" font-family="system-ui, sans-serif" font-size="14" font-weight="600" fill="#10b981">React</text>
    
    <rect x="-150" y="0" width="100" height="32" rx="16" fill="#10b981" opacity="0.2"/>
    <text x="-100" y="22" font-family="system-ui, sans-serif" font-size="14" font-weight="600" fill="#10b981">DynamoDB</text>
    
    <rect x="-30" y="0" width="60" height="32" rx="16" fill="#10b981" opacity="0.2"/>
    <text x="0" y="22" font-family="system-ui, sans-serif" font-size="14" font-weight="600" fill="#10b981">S3</text>
    
    <rect x="50" y="0" width="100" height="32" rx="16" fill="#10b981" opacity="0.2"/>
    <text x="100" y="22" font-family="system-ui, sans-serif" font-size="14" font-weight="600" fill="#10b981">OpenRouter</text>
    
    <rect x="170" y="0" width="110" height="32" rx="16" fill="#10b981" opacity="0.2"/>
    <text x="225" y="22" font-family="system-ui, sans-serif" font-size="14" font-weight="600" fill="#10b981">TypeScript</text>
    
    <rect x="300" y="0" width="50" height="32" rx="16" fill="#10b981" opacity="0.2"/>
    <text x="325" y="22" font-family="system-ui, sans-serif" font-size="14" font-weight="600" fill="#10b981">AI</text>
  </g>
  
  <!-- Cost badge -->
  <g transform="translate(640, 560)">
    <rect x="-80" y="0" width="160" height="40" rx="20" fill="url(#accent)"/>
    <text x="0" y="27" font-family="system-ui, sans-serif" font-size="16" font-weight="700" fill="white" text-anchor="middle">$0/month</text>
  </g>
  
  <!-- Corner accent -->
  <path d="M0 0 L120 0 L0 120 Z" fill="#10b981" opacity="0.3"/>
  <path d="M1280 640 L1160 640 L1280 520 Z" fill="#10b981" opacity="0.3"/>
</svg>
